# xmcd
#
# Track frame offsets:
#	150
#	12572
#	27469
#	41093
#	56517
#	71341
#	86990
#	101439
#	117163
#	131987
#	145911
#	159535
#	172109
#	186633
#	198307
#	210656
#	224655
#	237829
#	250853
#	262002
#	276601
#	289850
#	304599
#	319123
#	330947
#
# Disc length: 4601 seconds
#
# Revision: 0
# Processed by: cddbd v1.5.2PL0 Copyright (c) Steve Scherf et al.
# Submitted via: audiograbber 1.83.01
#
DISCID=8e11f719
DTITLE=Country and Western - CD01- History of the 1920s
DYEAR=1920
DGENRE=Country
TTITLE0=Jimmie Rodgers - Waiting For A Train_1929
TTITLE1=Vernon Dalhart - The Prisoner's Song_1924
TTITLE2=The Allen Brothers - Ain't That Skippin' And Flyin'_1927
TTITLE3=Mississippi John Hurt - Frankie And Johnny_1928
TTITLE4=Kelly Harrell - My Name Is John Jo Hannah_1927
TTITLE5=The Williamsons Brothers - Gonna Die With My Hammer_1927
TTITLE6=Alfred Karnes - Called To The Foreign Field_1927
TTITLE7=Jimmie Rodgers - Ben Dewberry's Final Run_1927
TTITLE8=Sam McGee - Railroad Blues_1928
TTITLE9=Grayson and Whitter - Train 45_1927
TTITLE10=Vernon Dalhart - Puttin' On The Style_1926
TTITLE11=G.Wade and F.Braswell - Thing A Little_1929
TTITLE12=The Carter Family - Wildwood Flower_1928
TTITLE13=Jimmie Rodgers - Blue Yodel No.5_1929
TTITLE14=Jules Verne Allen - The Days Of '49_1928
TTITLE15=Dr. Humphrey Bate - How Many Biscuits You Can Eat_1928
TTITLE16=Henry Thomas - Old Country Stomp_1928
TTITLE17=The Crook Brothers - My Wife Died Friday Night_1928
TTITLE18=The Kentucky Ramblers - The Unfortunate Brakeman_1928
TTITLE19=Jimmie Rodgers - Lullaby Yodel_1928
TTITLE20=Ernest Phipps - I Want To Go_1928
TTITLE21=Vernon Delhart - The 'Wreck Of The Old '97_1925
TTITLE22=Alfred Karnes - I Am Bound for The Promised Land_1929
TTITLE23=Jimmie Rodgers - Hobo Bill's Last ride_1929
TTITLE24=Grayson and Whitter - Tom Dooley_1929
EXTD=
EXTT0=
EXTT1=
EXTT2=
EXTT3=
EXTT4=
EXTT5=
EXTT6=
EXTT7=
EXTT8=
EXTT9=
EXTT10=
EXTT11=
EXTT12=
EXTT13=
EXTT14=
EXTT15=
EXTT16=
EXTT17=
EXTT18=
EXTT19=
EXTT20=
EXTT21=
EXTT22=
EXTT23=
EXTT24=
PLAYORDER=
